<svg xmlns="http://www.w3.org/2000/svg" xmlns:xlink="http://www.w3.org/1999/xlink" width="340" zoomAndPan="magnify" viewBox="0 0 255 231" height="308" preserveAspectRatio="xMidYMid meet" version="1.0"><defs><clipPath id="3c0ae5bfb9"><path d="M 79.429688 62.285156 L 89.179688 62.285156 L 89.179688 68 L 79.429688 68 Z M 79.429688 62.285156 " clip-rule="nonzero"/></clipPath><clipPath id="329e43e719"><path d="M 79.429688 65 L 89.179688 65 L 89.179688 71.285156 L 79.429688 71.285156 Z M 79.429688 65 " clip-rule="nonzero"/></clipPath><clipPath id="943c943011"><path d="M 79.429688 62.285156 L 89 62.285156 L 89 67 L 79.429688 67 Z M 79.429688 62.285156 " clip-rule="nonzero"/></clipPath><clipPath id="b4da0b1a0a"><path d="M 79.429688 65 L 89 65 L 89 71.285156 L 79.429688 71.285156 Z M 79.429688 65 " clip-rule="nonzero"/></clipPath><clipPath id="1eeceea7db"><path d="M 79.429688 62.285156 L 89 62.285156 L 89 67 L 79.429688 67 Z M 79.429688 62.285156 " clip-rule="nonzero"/></clipPath><clipPath id="97ddebad49"><path d="M 79.429688 65 L 89 65 L 89 71 L 79.429688 71 Z M 79.429688 65 " clip-rule="nonzero"/></clipPath><clipPath id="57290f8c3d"><path d="M 79.429688 64 L 82 64 L 82 67 L 79.429688 67 Z M 79.429688 64 " clip-rule="nonzero"/></clipPath><clipPath id="75e605ab3e"><path d="M 85 62.285156 L 87 62.285156 L 87 66 L 85 66 Z M 85 62.285156 " clip-rule="nonzero"/></clipPath><clipPath id="2913ac283c"><path d="M 86 62.285156 L 89 62.285156 L 89 65 L 86 65 Z M 86 62.285156 " clip-rule="nonzero"/></clipPath><clipPath id="f475d90f18"><path d="M 79.429688 67 L 82 67 L 82 71 L 79.429688 71 Z M 79.429688 67 " clip-rule="nonzero"/></clipPath><clipPath id="b4708f8d2f"><path d="M 0 0 L 254.25 0 L 254.25 125 L 0 125 Z M 0 0 " clip-rule="nonzero"/></clipPath><clipPath id="fdbf591b9d"><path d="M 0 79 L 254.25 79 L 254.25 230.25 L 0 230.25 Z M 0 79 " clip-rule="nonzero"/></clipPath></defs><rect x="-25.5" width="306" fill="#ffffff" y="-23.1" height="277.2" fill-opacity="1"/><g clip-path="url(#3c0ae5bfb9)"><path fill="#19161a" d="M 80.84375 67.167969 C 80.625 67.167969 80.441406 67.101562 80.292969 66.972656 C 80.289062 66.96875 79.75 66.429688 79.6875 66.34375 C 79.648438 66.292969 79.617188 66.238281 79.585938 66.175781 C 79.5 65.980469 79.457031 65.726562 79.457031 65.359375 C 79.457031 64.476562 79.792969 63.957031 80.457031 63.816406 C 80.546875 63.796875 80.632812 63.789062 80.714844 63.789062 C 80.894531 63.789062 81.054688 63.835938 81.191406 63.925781 C 81.359375 63.71875 81.589844 63.574219 81.878906 63.515625 C 81.964844 63.496094 82.050781 63.488281 82.128906 63.488281 C 82.242188 63.488281 82.347656 63.507812 82.445312 63.542969 C 82.457031 63.453125 82.527344 63.378906 82.613281 63.359375 L 83.566406 63.160156 C 83.574219 63.160156 83.578125 63.15625 83.585938 63.15625 C 83.59375 63.152344 83.601562 63.152344 83.613281 63.148438 L 86.03125 62.640625 C 86.042969 62.636719 86.050781 62.636719 86.0625 62.632812 C 86.074219 62.632812 86.082031 62.628906 86.09375 62.625 L 86.828125 62.472656 C 86.839844 62.46875 86.855469 62.464844 86.871094 62.464844 C 86.925781 62.464844 86.984375 62.488281 87.023438 62.53125 L 87.046875 62.554688 C 87.191406 62.4375 87.363281 62.359375 87.574219 62.316406 C 87.664062 62.296875 87.753906 62.285156 87.832031 62.285156 C 88.050781 62.285156 88.238281 62.351562 88.382812 62.480469 C 88.425781 62.515625 88.929688 63.03125 88.960938 63.070312 C 89.089844 63.226562 89.160156 63.429688 89.167969 63.675781 L 89.171875 63.765625 C 89.171875 63.769531 89.171875 63.777344 89.171875 63.78125 L 89.171875 63.800781 C 89.171875 63.800781 89.175781 63.847656 89.175781 63.847656 C 89.175781 63.859375 89.175781 63.871094 89.171875 63.878906 L 89.171875 65.253906 C 89.171875 65.359375 89.101562 65.449219 89 65.472656 L 88.34375 65.609375 C 88.328125 65.613281 88.3125 65.617188 88.300781 65.617188 C 88.285156 65.617188 88.28125 65.617188 88.273438 65.613281 C 88.222656 65.632812 88.171875 65.648438 88.117188 65.660156 C 88.039062 65.675781 87.96875 65.683594 87.898438 65.683594 C 87.832031 65.683594 87.71875 65.667969 87.636719 65.640625 C 87.613281 65.71875 87.554688 65.777344 87.472656 65.792969 L 86.6875 65.960938 C 86.675781 65.960938 86.664062 65.964844 86.65625 65.964844 C 86.644531 65.96875 86.632812 65.972656 86.621094 65.972656 L 83.261719 66.683594 C 83.25 66.6875 83.234375 66.6875 83.21875 66.6875 C 83.160156 66.6875 83.105469 66.664062 83.066406 66.621094 L 83.046875 66.605469 C 82.90625 66.71875 82.734375 66.796875 82.527344 66.839844 C 82.441406 66.855469 82.355469 66.867188 82.28125 66.867188 C 82.097656 66.867188 81.9375 66.816406 81.800781 66.722656 C 81.664062 66.898438 81.449219 67.066406 81.105469 67.140625 C 81.015625 67.160156 80.925781 67.167969 80.84375 67.167969 Z M 80.84375 67.167969 " fill-opacity="1" fill-rule="nonzero"/></g><g clip-path="url(#329e43e719)"><path fill="#19161a" d="M 80.976562 71.285156 C 80.695312 71.285156 80.460938 71.203125 80.28125 71.042969 C 80.253906 71.015625 79.726562 70.480469 79.671875 70.414062 C 79.527344 70.226562 79.449219 69.972656 79.441406 69.660156 L 79.433594 69.488281 C 79.433594 69.382812 79.503906 69.285156 79.609375 69.265625 L 79.835938 69.21875 C 79.75 69.128906 79.730469 69.105469 79.714844 69.089844 C 79.570312 68.90625 79.5 68.679688 79.5 68.394531 C 79.5 67.691406 79.957031 67.15625 80.691406 67.003906 C 80.816406 66.976562 80.933594 66.964844 81.039062 66.964844 C 81.3125 66.964844 81.539062 67.042969 81.714844 67.203125 C 81.726562 67.210938 81.746094 67.230469 81.785156 67.273438 C 82.003906 66.894531 82.347656 66.652344 82.8125 66.554688 C 82.925781 66.53125 83.039062 66.519531 83.140625 66.519531 C 83.40625 66.519531 83.632812 66.597656 83.816406 66.757812 C 83.835938 66.773438 83.894531 66.832031 83.960938 66.898438 C 84.175781 66.464844 84.535156 66.191406 85.039062 66.085938 C 85.152344 66.058594 85.265625 66.046875 85.367188 66.046875 C 85.621094 66.046875 85.835938 66.121094 86.015625 66.261719 L 86.015625 66.058594 C 86.015625 65.953125 86.085938 65.863281 86.1875 65.839844 L 87.207031 65.628906 C 87.222656 65.625 87.234375 65.621094 87.25 65.621094 C 87.277344 65.621094 87.304688 65.628906 87.328125 65.636719 C 87.355469 65.609375 87.394531 65.585938 87.4375 65.578125 L 88.351562 65.382812 C 88.367188 65.382812 88.382812 65.378906 88.398438 65.378906 C 88.453125 65.378906 88.507812 65.402344 88.550781 65.445312 L 89.113281 66.015625 C 89.152344 66.058594 89.175781 66.113281 89.175781 66.171875 L 89.175781 69.410156 C 89.175781 69.515625 89.101562 69.605469 89 69.628906 L 87.992188 69.839844 C 87.976562 69.84375 87.964844 69.84375 87.949219 69.84375 C 87.921875 69.84375 87.894531 69.839844 87.867188 69.828125 C 87.835938 69.859375 87.800781 69.882812 87.757812 69.890625 L 86.835938 70.085938 C 86.820312 70.085938 86.808594 70.089844 86.792969 70.089844 C 86.734375 70.089844 86.679688 70.066406 86.636719 70.023438 L 86.511719 69.894531 C 86.304688 70.113281 86.027344 70.257812 85.679688 70.328125 C 85.566406 70.355469 85.457031 70.367188 85.359375 70.367188 C 85.097656 70.367188 84.875 70.289062 84.695312 70.136719 C 84.679688 70.121094 84.65625 70.101562 84.542969 69.984375 C 84.332031 70.421875 83.972656 70.691406 83.453125 70.800781 C 83.339844 70.824219 83.234375 70.835938 83.132812 70.835938 C 82.855469 70.835938 82.621094 70.75 82.4375 70.578125 C 82.433594 70.574219 82.421875 70.5625 82.402344 70.542969 C 82.195312 70.894531 81.828125 71.144531 81.355469 71.242188 C 81.222656 71.269531 81.09375 71.285156 80.976562 71.285156 Z M 80.976562 71.285156 " fill-opacity="1" fill-rule="nonzero"/></g><g clip-path="url(#943c943011)"><path fill="#ffffff" d="M 80.84375 66.945312 C 80.679688 66.945312 80.542969 66.898438 80.4375 66.804688 C 80.410156 66.78125 79.902344 66.265625 79.859375 66.210938 C 79.832031 66.171875 79.804688 66.128906 79.785156 66.082031 C 79.710938 65.917969 79.675781 65.691406 79.675781 65.359375 C 79.675781 64.582031 79.945312 64.152344 80.5 64.035156 C 80.574219 64.019531 80.648438 64.007812 80.714844 64.007812 C 80.863281 64.007812 80.992188 64.050781 81.09375 64.132812 C 81.121094 64.152344 81.179688 64.210938 81.234375 64.265625 C 81.371094 63.980469 81.601562 63.800781 81.921875 63.730469 C 81.992188 63.71875 82.0625 63.710938 82.128906 63.710938 C 82.289062 63.710938 82.425781 63.757812 82.535156 63.851562 C 82.550781 63.863281 82.589844 63.898438 82.65625 63.972656 L 82.65625 63.578125 L 83.609375 63.375 L 83.648438 63.417969 L 83.65625 63.367188 L 86.074219 62.855469 L 86.136719 62.917969 L 86.136719 62.84375 L 86.867188 62.6875 L 87.042969 62.863281 C 87.179688 62.691406 87.367188 62.582031 87.617188 62.53125 C 87.691406 62.515625 87.765625 62.507812 87.832031 62.507812 C 87.996094 62.507812 88.132812 62.554688 88.238281 62.648438 C 88.273438 62.679688 88.769531 63.179688 88.796875 63.214844 C 88.894531 63.328125 88.945312 63.488281 88.949219 63.679688 L 88.953125 63.785156 C 88.953125 63.785156 88.953125 63.804688 88.953125 63.804688 L 88.957031 63.851562 L 88.953125 63.851562 L 88.953125 65.253906 L 88.296875 65.390625 L 88.277344 65.371094 C 88.214844 65.402344 88.144531 65.425781 88.070312 65.441406 C 88.007812 65.453125 87.953125 65.460938 87.898438 65.460938 C 87.742188 65.460938 87.613281 65.40625 87.511719 65.304688 C 87.503906 65.296875 87.46875 65.261719 87.429688 65.222656 L 87.429688 65.574219 L 86.640625 65.742188 L 86.578125 65.675781 L 86.578125 65.753906 L 83.21875 66.464844 L 83.050781 66.292969 C 82.914062 66.460938 82.726562 66.566406 82.480469 66.621094 C 82.410156 66.636719 82.34375 66.644531 82.277344 66.644531 C 82.117188 66.644531 81.980469 66.59375 81.871094 66.496094 C 81.855469 66.480469 81.816406 66.441406 81.753906 66.371094 C 81.664062 66.582031 81.472656 66.832031 81.0625 66.917969 C 80.984375 66.9375 80.910156 66.945312 80.84375 66.945312 Z M 80.84375 66.945312 " fill-opacity="1" fill-rule="nonzero"/></g><g clip-path="url(#b4da0b1a0a)"><path fill="#ffffff" d="M 80.976562 71.0625 C 80.75 71.0625 80.566406 71 80.425781 70.875 C 80.398438 70.851562 79.882812 70.328125 79.84375 70.277344 C 79.726562 70.125 79.664062 69.917969 79.65625 69.65625 L 79.652344 69.480469 L 80.273438 69.351562 C 80.003906 69.074219 79.902344 68.972656 79.886719 68.949219 C 79.773438 68.808594 79.71875 68.625 79.71875 68.394531 C 79.71875 67.792969 80.097656 67.355469 80.738281 67.21875 C 80.84375 67.195312 80.949219 67.183594 81.039062 67.183594 C 81.257812 67.183594 81.4375 67.246094 81.570312 67.367188 C 81.59375 67.386719 81.707031 67.503906 81.855469 67.652344 C 82.023438 67.167969 82.351562 66.878906 82.859375 66.769531 C 82.957031 66.75 83.054688 66.738281 83.140625 66.738281 C 83.355469 66.738281 83.535156 66.800781 83.679688 66.925781 C 83.703125 66.949219 83.910156 67.15625 84.042969 67.296875 C 84.199219 66.742188 84.539062 66.417969 85.082031 66.300781 C 85.183594 66.28125 85.28125 66.269531 85.367188 66.269531 C 85.578125 66.269531 85.757812 66.332031 85.902344 66.453125 C 85.921875 66.472656 86.015625 66.566406 86.230469 66.792969 L 86.230469 66.058594 L 87.25 65.84375 L 87.480469 66.078125 L 87.480469 65.796875 L 88.398438 65.601562 L 88.957031 66.175781 L 88.957031 69.410156 L 87.949219 69.625 L 87.710938 69.382812 L 87.710938 69.675781 L 86.792969 69.867188 L 86.496094 69.5625 C 86.308594 69.851562 86.027344 70.03125 85.636719 70.113281 C 85.539062 70.132812 85.445312 70.144531 85.359375 70.144531 C 85.152344 70.144531 84.972656 70.085938 84.835938 69.96875 C 84.8125 69.949219 84.710938 69.84375 84.460938 69.585938 C 84.308594 70.148438 83.972656 70.464844 83.410156 70.585938 C 83.3125 70.605469 83.21875 70.617188 83.132812 70.617188 C 82.910156 70.617188 82.726562 70.546875 82.585938 70.417969 C 82.566406 70.398438 82.484375 70.3125 82.347656 70.175781 L 82.335938 70.160156 C 82.207031 70.601562 81.839844 70.917969 81.3125 71.027344 C 81.191406 71.050781 81.078125 71.066406 80.976562 71.066406 Z M 80.976562 71.0625 " fill-opacity="1" fill-rule="nonzero"/></g><g clip-path="url(#1eeceea7db)"><path fill="#19161a" d="M 88.824219 63.785156 L 88.859375 63.777344 L 88.859375 63.683594 C 88.851562 63.511719 88.804688 63.375 88.722656 63.277344 C 88.699219 63.242188 88.210938 62.746094 88.179688 62.71875 C 88.089844 62.644531 87.976562 62.601562 87.832031 62.601562 C 87.6875 62.601562 87.703125 62.609375 87.632812 62.625 C 87.371094 62.679688 87.179688 62.804688 87.050781 63.011719 L 86.835938 62.792969 L 86.226562 62.921875 L 86.226562 63.148438 L 86.042969 62.960938 L 85.375 63.101562 L 85.375 63.199219 L 85.292969 63.117188 L 84.632812 63.257812 L 84.632812 63.34375 L 84.5625 63.273438 L 83.738281 63.449219 L 83.710938 63.617188 L 83.578125 63.480469 C 83.578125 63.480469 82.75 63.65625 82.75 63.65625 L 82.75 64.203125 C 82.730469 64.183594 82.507812 63.953125 82.472656 63.925781 C 82.390625 63.851562 82.277344 63.804688 82.128906 63.804688 C 81.976562 63.804688 82.003906 63.8125 81.9375 63.828125 C 81.597656 63.898438 81.375 64.101562 81.265625 64.445312 C 81.265625 64.445312 81.261719 64.445312 81.261719 64.445312 C 81.226562 64.394531 81.074219 64.238281 81.035156 64.207031 C 80.953125 64.140625 80.84375 64.105469 80.710938 64.105469 C 80.582031 64.105469 80.585938 64.113281 80.519531 64.128906 C 80.011719 64.234375 79.765625 64.636719 79.765625 65.359375 C 79.765625 66.082031 79.796875 65.890625 79.867188 66.042969 C 79.886719 66.085938 79.90625 66.121094 79.933594 66.152344 C 79.964844 66.199219 80.464844 66.707031 80.496094 66.734375 C 80.585938 66.8125 80.699219 66.851562 80.839844 66.851562 C 80.902344 66.851562 80.96875 66.84375 81.042969 66.828125 C 81.488281 66.734375 81.652344 66.4375 81.710938 66.199219 C 81.71875 66.203125 81.902344 66.402344 81.933594 66.429688 C 82.015625 66.503906 82.128906 66.550781 82.277344 66.550781 C 82.425781 66.550781 82.394531 66.542969 82.460938 66.53125 C 82.722656 66.476562 82.914062 66.351562 83.039062 66.148438 L 83.246094 66.363281 L 84.402344 66.117188 L 84.402344 66.097656 L 84.421875 66.113281 L 85.058594 65.980469 L 85.058594 65.894531 L 85.128906 65.964844 L 85.792969 65.824219 L 85.792969 65.726562 L 85.871094 65.808594 L 86.484375 65.679688 L 86.484375 65.449219 L 86.671875 65.640625 L 87.335938 65.5 L 87.335938 64.996094 C 87.351562 65.011719 87.554688 65.21875 87.574219 65.242188 C 87.660156 65.324219 87.765625 65.367188 87.898438 65.367188 C 87.945312 65.367188 87.996094 65.363281 88.050781 65.351562 C 88.144531 65.332031 88.226562 65.300781 88.292969 65.257812 L 88.328125 65.292969 L 88.859375 65.179688 L 88.859375 63.828125 L 88.820312 63.789062 Z M 81.085938 65.324219 L 81.085938 65.347656 C 81.085938 65.347656 80.96875 65.375 80.96875 65.375 C 80.96875 65.359375 80.972656 65.34375 80.976562 65.332031 L 81.085938 65.308594 C 81.085938 65.3125 81.085938 65.320312 81.085938 65.324219 Z M 81.085938 65.324219 " fill-opacity="1" fill-rule="nonzero"/></g><g clip-path="url(#97ddebad49)"><path fill="#19161a" d="M 88.367188 65.707031 L 87.574219 65.871094 L 87.574219 66.308594 L 87.21875 65.949219 L 86.324219 66.136719 L 86.324219 67.023438 C 86.320312 67.019531 85.878906 66.558594 85.839844 66.527344 C 85.722656 66.425781 85.570312 66.363281 85.367188 66.363281 C 85.164062 66.363281 85.195312 66.375 85.101562 66.394531 C 84.542969 66.511719 84.214844 66.863281 84.09375 67.488281 C 84.09375 67.488281 84.089844 67.488281 84.089844 67.484375 C 84.054688 67.4375 83.652344 67.03125 83.617188 66.996094 C 83.5 66.898438 83.347656 66.832031 83.140625 66.832031 C 82.933594 66.832031 82.96875 66.84375 82.875 66.863281 C 82.355469 66.972656 82.035156 67.285156 81.894531 67.832031 C 81.878906 67.816406 81.539062 67.464844 81.507812 67.4375 C 81.390625 67.332031 81.234375 67.277344 81.039062 67.277344 C 80.84375 67.277344 80.855469 67.289062 80.753906 67.3125 C 80.160156 67.4375 79.808594 67.839844 79.808594 68.390625 C 79.808594 68.941406 79.859375 68.769531 79.957031 68.890625 C 79.988281 68.929688 80.453125 69.398438 80.460938 69.40625 L 79.746094 69.558594 L 79.75 69.652344 C 79.757812 69.914062 79.820312 70.09375 79.914062 70.21875 C 79.949219 70.261719 80.457031 70.777344 80.488281 70.804688 C 80.628906 70.929688 80.8125 70.96875 80.976562 70.96875 C 81.140625 70.96875 81.179688 70.957031 81.292969 70.933594 C 81.855469 70.8125 82.210938 70.457031 82.277344 69.96875 C 82.289062 69.980469 82.617188 70.316406 82.644531 70.34375 C 82.761719 70.453125 82.917969 70.519531 83.128906 70.519531 C 83.339844 70.519531 83.296875 70.507812 83.390625 70.488281 C 83.960938 70.367188 84.285156 70.03125 84.40625 69.394531 C 84.410156 69.398438 84.855469 69.859375 84.894531 69.894531 C 85.007812 69.992188 85.15625 70.050781 85.355469 70.050781 C 85.554688 70.050781 85.523438 70.039062 85.617188 70.019531 C 86.019531 69.933594 86.300781 69.742188 86.472656 69.410156 L 86.820312 69.765625 L 87.617188 69.597656 L 87.617188 69.152344 L 87.976562 69.519531 L 88.863281 69.332031 L 88.863281 66.214844 Z M 81.828125 68.949219 C 81.808594 68.933594 81.789062 68.917969 81.769531 68.902344 C 81.742188 68.863281 81.707031 68.824219 81.671875 68.792969 L 81.816406 68.761719 C 81.820312 68.824219 81.820312 68.886719 81.828125 68.949219 Z M 81.828125 68.949219 " fill-opacity="1" fill-rule="nonzero"/></g><g clip-path="url(#57290f8c3d)"><path fill="#ffffff" d="M 81.140625 65.449219 C 81.136719 65.648438 81.0625 66.101562 80.523438 66.214844 C 79.988281 66.328125 79.875 65.964844 79.875 65.359375 C 79.875 64.75 80.097656 64.328125 80.542969 64.234375 C 81.058594 64.125 81.132812 64.5 81.140625 64.722656 L 80.695312 64.816406 C 80.691406 64.710938 80.691406 64.546875 80.535156 64.582031 C 80.382812 64.613281 80.34375 64.796875 80.34375 65.261719 C 80.34375 65.726562 80.367188 65.90625 80.527344 65.871094 C 80.679688 65.839844 80.691406 65.660156 80.695312 65.542969 Z M 81.140625 65.449219 " fill-opacity="1" fill-rule="nonzero"/></g><path fill="#ffffff" d="M 82.617188 64.769531 C 82.617188 65.46875 82.425781 65.8125 81.945312 65.914062 C 81.496094 66.007812 81.296875 65.742188 81.296875 65.039062 C 81.296875 64.339844 81.519531 64.027344 81.960938 63.933594 C 82.417969 63.835938 82.617188 64.109375 82.617188 64.769531 Z M 81.761719 64.941406 C 81.761719 65.414062 81.804688 65.601562 81.957031 65.566406 C 82.117188 65.535156 82.15625 65.34375 82.15625 64.859375 C 82.15625 64.375 82.117188 64.25 81.957031 64.28125 C 81.804688 64.3125 81.761719 64.5 81.761719 64.945312 Z M 81.761719 64.941406 " fill-opacity="1" fill-rule="nonzero"/><path fill="#ffffff" d="M 83.835938 63.539062 L 83.652344 64.761719 L 83.644531 64.765625 L 83.488281 63.613281 L 82.859375 63.746094 L 82.859375 65.71875 L 83.25 65.636719 L 83.25 64.074219 L 83.449219 65.597656 L 83.808594 65.519531 L 84.035156 63.886719 L 84.035156 65.472656 L 84.453125 65.382812 L 84.453125 63.410156 Z M 83.835938 63.539062 " fill-opacity="1" fill-rule="nonzero"/><path fill="#ffffff" d="M 85.1875 63.253906 L 85.1875 65.226562 L 84.742188 65.324219 L 84.742188 63.347656 Z M 85.1875 63.253906 " fill-opacity="1" fill-rule="nonzero"/><g clip-path="url(#75e605ab3e)"><path fill="#ffffff" d="M 86.335938 63.011719 L 86.335938 64.199219 L 85.972656 63.085938 L 85.484375 63.191406 L 85.484375 65.167969 L 85.878906 65.082031 L 85.878906 63.820312 L 86.25 65.003906 L 86.730469 64.902344 L 86.730469 62.929688 Z M 86.335938 63.011719 " fill-opacity="1" fill-rule="nonzero"/></g><g clip-path="url(#2913ac283c)"><path fill="#ffffff" d="M 88.257812 64.582031 L 87.929688 64.648438 L 87.914062 64.46875 C 87.828125 64.632812 87.6875 64.703125 87.535156 64.734375 C 87.148438 64.816406 86.96875 64.566406 86.96875 63.875 C 86.96875 63.183594 87.234375 62.820312 87.65625 62.730469 C 88.203125 62.617188 88.246094 63.03125 88.25 63.179688 L 87.804688 63.273438 C 87.800781 63.183594 87.789062 63.050781 87.640625 63.078125 C 87.476562 63.113281 87.433594 63.335938 87.433594 63.78125 C 87.433594 64.222656 87.476562 64.402344 87.632812 64.367188 C 87.769531 64.339844 87.808594 64.21875 87.808594 64.011719 L 87.808594 63.890625 L 87.621094 63.929688 L 87.621094 63.585938 L 88.253906 63.453125 L 88.253906 64.578125 Z M 88.257812 64.582031 " fill-opacity="1" fill-rule="nonzero"/></g><g clip-path="url(#f475d90f18)"><path fill="#ffffff" d="M 80.503906 69.511719 C 80.519531 69.738281 80.585938 69.882812 80.78125 69.839844 C 80.96875 69.800781 81.03125 69.664062 81.03125 69.503906 C 81.03125 69.347656 80.929688 69.21875 80.597656 69.121094 C 80.105469 68.976562 79.917969 68.804688 79.917969 68.394531 C 79.917969 67.980469 80.214844 67.539062 80.777344 67.421875 C 81.4375 67.28125 81.628906 67.648438 81.632812 68.074219 L 81.003906 68.207031 C 80.996094 68.015625 80.960938 67.855469 80.773438 67.894531 C 80.628906 67.925781 80.5625 68.03125 80.5625 68.1875 C 80.5625 68.34375 80.628906 68.417969 80.9375 68.503906 C 81.460938 68.652344 81.683594 68.824219 81.683594 69.296875 C 81.683594 69.765625 81.410156 70.183594 80.773438 70.316406 C 80.085938 70.460938 79.875 70.121094 79.859375 69.648438 Z M 80.503906 69.511719 " fill-opacity="1" fill-rule="nonzero"/></g><path fill="#ffffff" d="M 83.859375 68.199219 C 83.859375 69.222656 83.574219 69.722656 82.871094 69.871094 C 82.214844 70.011719 81.921875 69.625 81.921875 68.59375 C 81.921875 67.5625 82.246094 67.109375 82.898438 66.972656 C 83.566406 66.832031 83.859375 67.226562 83.859375 68.199219 Z M 82.601562 68.449219 C 82.601562 69.140625 82.664062 69.414062 82.890625 69.367188 C 83.125 69.316406 83.179688 69.039062 83.179688 68.328125 C 83.179688 67.621094 83.121094 67.433594 82.890625 67.480469 C 82.664062 67.53125 82.601562 67.800781 82.601562 68.449219 Z M 82.601562 68.449219 " fill-opacity="1" fill-rule="nonzero"/><path fill="#ffffff" d="M 86.085938 67.730469 C 86.085938 68.75 85.800781 69.253906 85.097656 69.402344 C 84.441406 69.542969 84.148438 69.152344 84.148438 68.125 C 84.148438 67.09375 84.472656 66.640625 85.125 66.503906 C 85.792969 66.363281 86.085938 66.757812 86.085938 67.730469 Z M 84.828125 67.980469 C 84.828125 68.667969 84.890625 68.941406 85.117188 68.894531 C 85.351562 68.847656 85.40625 68.566406 85.40625 67.859375 C 85.40625 67.148438 85.347656 66.960938 85.117188 67.011719 C 84.890625 67.058594 84.828125 67.332031 84.828125 67.980469 Z M 84.828125 67.980469 " fill-opacity="1" fill-rule="nonzero"/><path fill="#ffffff" d="M 87.683594 65.960938 L 87.683594 67.703125 L 87.148438 66.074219 L 86.433594 66.226562 L 86.433594 69.121094 L 87.011719 68.996094 L 87.011719 67.148438 L 87.554688 68.882812 L 88.257812 68.734375 L 88.257812 65.839844 Z M 87.683594 65.960938 " fill-opacity="1" fill-rule="nonzero"/><g clip-path="url(#b4708f8d2f)"><path fill="#19161a" d="M 36.851562 124.925781 C 31.179688 124.925781 26.367188 123.234375 22.527344 119.878906 C 22.425781 119.777344 8.351562 106 6.710938 103.847656 C 5.730469 102.5625 4.863281 101.121094 4.136719 99.546875 C 1.800781 94.496094 0.75 88.058594 0.75 78.621094 C 0.75 56.015625 9.519531 42.730469 26.808594 39.15625 C 29.144531 38.683594 31.382812 38.429688 33.496094 38.429688 C 38.238281 38.429688 42.421875 39.632812 45.925781 42.003906 C 50.292969 36.617188 56.390625 33.007812 63.855469 31.464844 C 66.125 30.992188 68.34375 30.753906 70.410156 30.753906 C 73.375 30.753906 76.132812 31.226562 78.640625 32.160156 C 78.996094 29.855469 80.753906 27.972656 83.09375 27.484375 L 107.898438 22.367188 C 108.066406 22.332031 108.238281 22.296875 108.40625 22.28125 C 108.625 22.195312 108.863281 22.128906 109.117188 22.09375 L 172.191406 9.03125 C 172.460938 8.980469 172.730469 8.945312 173.003906 8.929688 C 173.257812 8.84375 173.511719 8.761719 173.78125 8.710938 L 192.914062 4.746094 C 193.304688 4.660156 193.675781 4.625 194.066406 4.625 C 195.558594 4.625 196.996094 5.21875 198.078125 6.285156 L 198.640625 6.84375 C 202.414062 3.878906 206.96875 1.863281 212.421875 0.746094 C 214.792969 0.253906 217.0625 0 219.195312 0 C 224.867188 0 229.691406 1.675781 233.519531 4.964844 C 234.621094 5.914062 247.757812 19.042969 248.625 20.078125 C 251.992188 24.042969 253.820312 29.246094 254.023438 35.515625 L 254.09375 37.851562 C 254.09375 38.003906 254.109375 38.15625 254.109375 38.308594 L 254.109375 38.785156 C 254.109375 38.785156 254.160156 39.9375 254.160156 39.9375 C 254.160156 40.226562 254.160156 40.511719 254.125 40.800781 L 254.125 75.976562 C 254.125 78.671875 252.246094 80.976562 249.605469 81.535156 L 232.488281 85.074219 C 232.097656 85.160156 231.726562 85.195312 231.335938 85.195312 C 230.945312 85.195312 230.910156 85.195312 230.691406 85.160156 C 229.371094 85.617188 227.984375 86.007812 226.542969 86.3125 C 224.597656 86.71875 222.699219 86.921875 220.90625 86.921875 C 219.109375 86.921875 216.199219 86.550781 214.082031 85.835938 C 213.488281 87.785156 211.878906 89.328125 209.796875 89.75 L 189.308594 93.988281 C 189.019531 94.054688 188.734375 94.089844 188.445312 94.105469 C 188.175781 94.207031 187.902344 94.292969 187.617188 94.34375 L 99.992188 112.492188 C 99.601562 112.574219 99.230469 112.609375 98.839844 112.609375 C 97.347656 112.609375 95.910156 112.03125 94.84375 110.949219 L 94.386719 110.507812 C 90.679688 113.40625 86.175781 115.371094 80.773438 116.488281 C 78.519531 116.945312 76.351562 117.183594 74.339844 117.183594 C 69.597656 117.183594 65.414062 115.945312 61.894531 113.507812 C 58.304688 118.046875 52.648438 122.316406 43.757812 124.164062 C 41.335938 124.671875 39.035156 124.925781 36.882812 124.925781 Z M 36.851562 124.925781 " fill-opacity="1" fill-rule="nonzero"/></g><g clip-path="url(#fdbf591b9d)"><path fill="#19161a" d="M 40.390625 230.234375 C 33.039062 230.234375 26.945312 228.148438 22.269531 224.015625 C 21.527344 223.355469 7.761719 209.695312 6.371094 207.933594 C 2.578125 203.105469 0.53125 196.632812 0.292969 188.703125 L 0.15625 184.28125 C 0.0742188 181.535156 1.988281 179.113281 4.679688 178.554688 L 10.589844 177.335938 C 8.386719 175.113281 7.8125 174.488281 7.472656 174.0625 C 3.679688 169.386719 1.835938 163.542969 1.835938 156.238281 C 1.835938 138.277344 13.753906 124.640625 32.9375 120.675781 C 36.140625 120.011719 39.1875 119.675781 41.996094 119.675781 C 49.109375 119.675781 55.035156 121.726562 59.605469 125.773438 C 59.878906 126.027344 60.402344 126.519531 61.46875 127.585938 C 67.140625 117.894531 76.117188 111.726562 88.238281 109.21875 C 91.238281 108.59375 94.132812 108.289062 96.808594 108.289062 C 103.734375 108.289062 109.675781 110.355469 114.449219 114.40625 C 114.925781 114.8125 116.433594 116.285156 118.210938 118.03125 C 123.765625 106.898438 133.195312 99.917969 146.300781 97.191406 C 149.296875 96.5625 152.175781 96.257812 154.867188 96.257812 C 161.4375 96.257812 167.109375 98.105469 171.75 101.746094 L 171.75 96.527344 C 171.75 93.835938 173.628906 91.515625 176.269531 90.972656 L 202.820312 85.480469 C 203.210938 85.398438 203.582031 85.363281 203.972656 85.363281 C 204.667969 85.363281 205.359375 85.5 206.003906 85.734375 C 206.765625 84.992188 207.730469 84.464844 208.832031 84.226562 L 232.742188 79.28125 C 233.128906 79.195312 233.503906 79.160156 233.890625 79.160156 C 235.382812 79.160156 236.820312 79.753906 237.90625 80.820312 L 252.515625 95.445312 C 253.585938 96.511719 254.175781 97.953125 254.175781 99.460938 L 254.175781 182.265625 C 254.175781 184.960938 252.296875 187.28125 249.65625 187.824219 L 223.34375 193.277344 C 222.953125 193.363281 222.582031 193.398438 222.191406 193.398438 C 221.464844 193.398438 220.734375 193.261719 220.058594 192.972656 C 219.296875 193.753906 218.296875 194.3125 217.164062 194.550781 L 193.1875 199.515625 C 192.796875 199.597656 192.425781 199.632812 192.035156 199.632812 C 190.546875 199.632812 189.105469 199.039062 188.023438 197.972656 L 184.703125 194.652344 C 179.285156 200.242188 172.121094 203.917969 163.03125 205.800781 C 160.082031 206.410156 157.238281 206.714844 154.613281 206.714844 C 147.839844 206.714844 142.035156 204.734375 137.359375 200.835938 C 136.953125 200.496094 136.34375 199.9375 133.414062 196.988281 C 127.914062 208.15625 118.53125 215 104.96875 217.8125 C 102.023438 218.421875 99.195312 218.726562 96.554688 218.726562 C 89.355469 218.726562 83.296875 216.507812 78.488281 212.152344 C 78.316406 212 78.046875 211.730469 77.574219 211.273438 C 72.101562 220.253906 62.535156 226.589844 50.242188 229.148438 C 46.738281 229.878906 43.421875 230.25 40.390625 230.25 Z M 40.390625 230.234375 " fill-opacity="1" fill-rule="nonzero"/></g><path fill="#ffffff" d="M 36.851562 119.25 C 32.582031 119.25 29.027344 118.015625 26.25 115.589844 C 25.589844 115.015625 12.316406 101.832031 11.230469 100.410156 C 10.503906 99.445312 9.84375 98.34375 9.285156 97.15625 C 7.304688 92.902344 6.421875 87.175781 6.421875 78.621094 C 6.421875 58.796875 13.464844 47.714844 27.960938 44.714844 C 29.90625 44.308594 31.769531 44.105469 33.496094 44.105469 C 37.410156 44.105469 40.761719 45.15625 43.4375 47.207031 C 44.097656 47.714844 45.6875 49.238281 47.109375 50.695312 C 50.597656 43.34375 56.609375 38.75 64.992188 37.003906 C 66.886719 36.617188 68.71875 36.414062 70.394531 36.414062 C 74.609375 36.414062 78.183594 37.632812 81.007812 40.019531 C 81.398438 40.34375 82.382812 41.292969 84.210938 43.121094 L 84.210938 33.023438 L 109.015625 27.90625 L 110.03125 28.921875 L 110.234375 27.636719 L 173.308594 14.570312 L 174.898438 16.164062 L 174.898438 14.25 L 194.03125 10.285156 L 198.539062 14.792969 C 202.144531 10.402344 207.054688 7.625 213.523438 6.285156 C 215.503906 5.878906 217.398438 5.660156 219.160156 5.660156 C 223.445312 5.660156 227.015625 6.863281 229.792969 9.25 C 230.691406 10.03125 243.558594 22.890625 244.289062 23.738281 C 246.8125 26.703125 248.183594 30.71875 248.335938 35.683594 L 248.417969 38.34375 C 248.417969 38.34375 248.417969 38.886719 248.417969 38.886719 L 248.453125 40.089844 L 248.417969 40.089844 L 248.417969 75.941406 L 231.300781 79.484375 L 230.777344 78.941406 C 229.152344 79.703125 227.339844 80.296875 225.359375 80.703125 C 223.785156 81.027344 222.277344 81.195312 220.871094 81.195312 C 216.808594 81.195312 213.421875 79.875 210.761719 77.28125 C 210.542969 77.0625 209.660156 76.179688 208.613281 75.128906 L 208.613281 84.160156 L 188.125 88.394531 L 186.429688 86.703125 L 186.429688 88.734375 L 98.804688 106.882812 L 94.421875 102.511719 C 90.898438 106.8125 86.039062 109.558594 79.605469 110.898438 C 77.742188 111.289062 75.964844 111.472656 74.304688 111.472656 C 70.105469 111.472656 66.53125 110.21875 63.722656 107.730469 C 63.296875 107.355469 62.25 106.289062 60.589844 104.558594 C 58.269531 109.949219 53.292969 116.335938 42.574219 118.554688 C 40.523438 118.980469 38.609375 119.199219 36.851562 119.199219 Z M 36.851562 119.25 " fill-opacity="1" fill-rule="nonzero"/><path fill="#ffffff" d="M 40.390625 224.574219 C 34.460938 224.574219 29.621094 222.964844 26.011719 219.777344 C 25.269531 219.117188 11.875 205.78125 10.824219 204.445312 C 7.792969 200.582031 6.167969 195.226562 5.964844 188.535156 L 5.832031 184.113281 L 22.050781 180.757812 C 14.957031 173.707031 12.382812 171.117188 11.890625 170.507812 C 8.945312 166.863281 7.523438 162.203125 7.523438 156.238281 C 7.523438 140.886719 17.460938 129.671875 34.105469 126.214844 C 36.933594 125.621094 39.59375 125.332031 42.015625 125.332031 C 47.703125 125.332031 52.359375 126.910156 55.882812 130.011719 C 56.425781 130.484375 59.386719 133.464844 63.230469 137.328125 C 67.617188 124.875 76.199219 117.488281 89.425781 114.742188 C 92.050781 114.203125 94.539062 113.929688 96.839844 113.929688 C 102.394531 113.929688 107.085938 115.539062 110.8125 118.707031 C 111.488281 119.285156 116.871094 124.621094 120.359375 128.214844 C 124.390625 114.015625 133.28125 105.679688 147.46875 102.730469 C 150.09375 102.1875 152.582031 101.917969 154.886719 101.917969 C 160.40625 101.917969 165.078125 103.511719 168.785156 106.628906 C 169.328125 107.085938 171.785156 109.542969 177.421875 115.269531 L 177.421875 96.527344 L 203.972656 91.039062 L 209.984375 97.054688 L 209.984375 89.800781 L 233.890625 84.855469 L 248.503906 99.476562 L 248.503906 182.28125 L 222.191406 187.738281 L 216.027344 181.570312 L 216.027344 189.027344 L 192.050781 193.988281 L 184.28125 186.214844 C 179.421875 193.566406 172.089844 198.175781 161.894531 200.277344 C 159.320312 200.800781 156.882812 201.074219 154.632812 201.074219 C 149.214844 201.074219 144.625 199.53125 141 196.515625 C 140.425781 196.039062 137.765625 193.363281 131.265625 186.773438 C 127.285156 201.125 118.53125 209.257812 103.835938 212.304688 C 101.261719 212.832031 98.824219 213.101562 96.570312 213.101562 C 90.832031 213.101562 86.039062 211.390625 82.3125 208.003906 C 81.855469 207.597656 79.671875 205.394531 76.117188 201.816406 L 75.777344 201.480469 C 72.476562 212.746094 62.839844 220.796875 49.09375 223.640625 C 45.960938 224.285156 43.03125 224.625 40.390625 224.625 Z M 40.390625 224.574219 " fill-opacity="1" fill-rule="nonzero"/><path fill="#19161a" d="M 244.984375 38.378906 L 245.980469 38.175781 L 245.898438 35.785156 C 245.761719 31.363281 244.542969 27.820312 242.425781 25.332031 C 241.714844 24.5 228.980469 11.777344 228.203125 11.097656 C 225.917969 9.132812 222.867188 8.097656 219.144531 8.097656 C 215.417969 8.097656 215.824219 8.285156 213.996094 8.675781 C 207.15625 10.097656 202.125 13.316406 198.808594 18.535156 L 193.21875 12.945312 L 177.304688 16.25 L 177.304688 22.0625 L 172.496094 17.25 L 155.070312 20.859375 L 155.070312 23.382812 L 152.972656 21.28125 L 135.703125 24.855469 L 135.703125 27.109375 L 133.839844 25.261719 L 112.351562 29.71875 L 111.691406 34.089844 L 108.167969 30.566406 C 108.167969 30.582031 86.613281 35.058594 86.613281 35.058594 L 86.613281 49.050781 C 86.105469 48.5625 80.296875 42.664062 79.417969 41.917969 C 77.21875 40.070312 74.289062 38.886719 70.359375 38.886719 C 66.429688 38.886719 67.191406 39.074219 65.449219 39.429688 C 56.542969 41.273438 50.734375 46.492188 47.890625 55.269531 C 47.855469 55.253906 47.839844 55.238281 47.804688 55.21875 C 46.925781 53.914062 42.945312 49.933594 41.929688 49.152344 C 39.710938 47.460938 36.867188 46.5625 33.464844 46.5625 C 30.058594 46.5625 30.210938 46.75 28.417969 47.121094 C 15.226562 49.847656 8.808594 60.167969 8.808594 78.652344 C 8.808594 97.140625 9.621094 92.242188 11.433594 96.15625 C 11.925781 97.191406 12.46875 98.140625 13.109375 98.96875 C 13.941406 100.070312 27.03125 113.117188 27.808594 113.792969 C 30.128906 115.828125 33.140625 116.84375 36.816406 116.84375 C 38.40625 116.84375 40.167969 116.640625 42.046875 116.25 C 53.664062 113.847656 57.980469 106.222656 59.539062 100.085938 C 59.675781 100.1875 64.484375 105.273438 65.296875 105.984375 C 67.480469 107.898438 70.394531 109.117188 74.269531 109.117188 C 78.148438 109.117188 77.371094 108.933594 79.078125 108.59375 C 85.902344 107.1875 90.847656 104.035156 94.097656 98.851562 L 99.550781 104.304688 L 129.65625 98.070312 L 129.742188 97.476562 L 130.214844 97.953125 L 146.792969 94.511719 L 146.792969 92.277344 L 148.65625 94.140625 L 165.925781 90.566406 L 165.925781 88.039062 L 168.023438 90.140625 L 183.992188 86.835938 L 183.992188 80.90625 L 188.902344 85.820312 L 206.171875 82.246094 L 206.171875 69.335938 C 206.628906 69.757812 211.878906 75.0625 212.457031 75.621094 C 214.640625 77.753906 217.449219 78.839844 220.855469 78.839844 C 222.089844 78.839844 223.445312 78.6875 224.851562 78.398438 C 227.304688 77.890625 229.421875 77.113281 231.199219 76.027344 L 232.0625 76.90625 L 245.964844 74.027344 L 245.964844 39.429688 L 244.949219 38.410156 Z M 43.199219 77.722656 L 43.199219 78.382812 C 43.214844 78.382812 40.152344 79.027344 40.152344 79.027344 C 40.203125 78.636719 40.269531 78.28125 40.339844 77.941406 L 43.183594 77.347656 C 43.183594 77.484375 43.183594 77.621094 43.183594 77.722656 Z M 43.199219 77.722656 " fill-opacity="1" fill-rule="nonzero"/><path fill="#19161a" d="M 233.078125 87.480469 L 212.386719 91.769531 L 212.386719 102.917969 L 203.160156 93.683594 L 179.828125 98.511719 L 179.828125 121.199219 C 179.757812 121.148438 168.195312 109.320312 167.195312 108.492188 C 164.179688 105.949219 160.167969 104.339844 154.851562 104.339844 C 149.535156 104.339844 150.398438 104.59375 147.925781 105.101562 C 133.382812 108.117188 124.8125 117.148438 121.648438 133.109375 C 121.613281 133.078125 121.578125 133.058594 121.546875 133.027344 C 120.613281 131.824219 110.167969 121.367188 109.203125 120.539062 C 106.171875 117.964844 102.160156 116.335938 96.789062 116.335938 C 91.421875 116.335938 92.335938 116.589844 89.867188 117.097656 C 76.335938 119.894531 67.972656 127.910156 64.3125 141.886719 C 63.875 141.464844 55.035156 132.519531 54.222656 131.804688 C 51.191406 129.128906 47.078125 127.738281 41.964844 127.738281 C 36.851562 127.738281 37.207031 128.011719 34.546875 128.570312 C 19.105469 131.773438 9.894531 142.089844 9.894531 156.207031 C 9.894531 170.320312 11.230469 165.847656 13.71875 168.929688 C 14.550781 169.964844 26.707031 181.941406 26.910156 182.179688 L 8.269531 186.042969 L 8.335938 188.433594 C 8.539062 195.140625 10.214844 199.769531 12.6875 202.917969 C 13.585938 204.054688 26.777344 217.238281 27.570312 217.933594 C 31.261719 221.183594 36.039062 222.132812 40.355469 222.132812 C 44.671875 222.132812 45.605469 221.828125 48.566406 221.203125 C 63.246094 218.167969 72.59375 209.085938 74.289062 196.546875 C 74.609375 196.835938 83.125 205.460938 83.886719 206.15625 C 86.9375 208.933594 91.035156 210.628906 96.503906 210.628906 C 101.972656 210.628906 100.855469 210.375 103.277344 209.882812 C 118.226562 206.78125 126.660156 198.140625 129.84375 181.890625 C 129.925781 181.960938 141.507812 193.785156 142.492188 194.617188 C 145.472656 197.109375 149.398438 198.617188 154.5625 198.617188 C 159.726562 198.617188 158.914062 198.363281 161.335938 197.871094 C 171.902344 195.683594 179.21875 190.71875 183.722656 182.265625 L 192.78125 191.328125 L 213.539062 187.027344 L 213.539062 175.691406 L 222.9375 185.09375 L 246.03125 180.316406 L 246.03125 100.492188 L 233.0625 87.515625 Z M 62.519531 170.488281 C 62.0625 170.046875 61.570312 169.625 61.0625 169.234375 C 60.300781 168.234375 59.421875 167.320312 58.4375 166.492188 L 62.265625 165.695312 C 62.316406 167.269531 62.402344 168.878906 62.535156 170.488281 Z M 62.519531 170.488281 " fill-opacity="1" fill-rule="nonzero"/><path fill="#ffffff" d="M 44.640625 80.976562 C 44.488281 86.039062 42.625 97.578125 28.554688 100.492188 C 14.601562 103.390625 11.671875 94.175781 11.671875 78.621094 C 11.671875 63.066406 17.460938 52.253906 29.011719 49.867188 C 42.488281 47.070312 44.46875 56.609375 44.621094 62.386719 L 33.058594 64.777344 C 32.957031 62.066406 32.886719 57.878906 28.824219 58.710938 C 24.84375 59.539062 23.8125 64.199219 23.8125 76.128906 C 23.8125 88.058594 24.421875 92.597656 28.671875 91.71875 C 32.632812 90.902344 32.871094 86.3125 33.023438 83.347656 L 44.605469 80.941406 Z M 44.640625 80.976562 " fill-opacity="1" fill-rule="nonzero"/><path fill="#ffffff" d="M 83.195312 63.589844 C 83.195312 81.449219 78.148438 90.226562 65.601562 92.835938 C 53.902344 95.257812 48.703125 88.464844 48.703125 70.488281 C 48.703125 52.507812 54.476562 44.578125 66.074219 42.171875 C 77.980469 39.699219 83.195312 46.628906 83.195312 63.574219 Z M 60.828125 67.980469 C 60.828125 80.007812 61.945312 84.785156 65.941406 83.957031 C 70.140625 83.09375 71.085938 78.230469 71.085938 65.859375 C 71.085938 53.492188 70.089844 50.203125 65.941406 51.070312 C 61.945312 51.898438 60.828125 56.625 60.828125 67.996094 Z M 60.828125 67.980469 " fill-opacity="1" fill-rule="nonzero"/><path fill="#ffffff" d="M 114.890625 32.074219 L 110.132812 63.371094 L 109.894531 63.421875 L 105.816406 33.957031 L 89.492188 37.328125 L 89.492188 87.871094 L 99.6875 85.753906 L 99.6875 45.765625 L 104.851562 84.683594 L 114.230469 82.738281 L 120.089844 40.9375 L 120.140625 40.917969 L 120.140625 81.515625 L 131.0625 79.246094 L 131.0625 28.71875 Z M 114.890625 32.074219 " fill-opacity="1" fill-rule="nonzero"/><path fill="#ffffff" d="M 150.195312 24.753906 L 150.195312 75.28125 L 138.597656 77.6875 L 138.597656 27.160156 Z M 150.195312 24.753906 " fill-opacity="1" fill-rule="nonzero"/><path fill="#ffffff" d="M 180.164062 18.554688 L 180.164062 48.949219 L 170.648438 20.519531 L 157.949219 23.144531 L 157.949219 73.6875 L 168.246094 71.554688 L 168.246094 39.277344 L 177.914062 69.554688 L 190.410156 66.960938 L 190.410156 16.433594 Z M 180.164062 18.554688 " fill-opacity="1" fill-rule="nonzero"/><path fill="#ffffff" d="M 230.234375 58.726562 L 221.699219 60.488281 L 221.277344 55.8125 C 219.09375 60.050781 215.335938 61.8125 211.355469 62.625 C 201.28125 64.707031 196.65625 58.371094 196.65625 40.683594 C 196.65625 22.992188 203.566406 13.707031 214.570312 11.421875 C 228.847656 8.472656 229.980469 19.113281 230.097656 22.890625 L 218.484375 25.296875 C 218.363281 22.941406 218.007812 19.535156 214.183594 20.316406 C 209.863281 21.214844 208.796875 26.890625 208.796875 38.226562 C 208.796875 49.5625 209.832031 54.101562 213.996094 53.238281 C 217.519531 52.507812 218.566406 49.441406 218.566406 44.191406 L 218.566406 41.070312 L 213.605469 42.105469 L 213.605469 33.3125 L 230.183594 29.871094 L 230.183594 58.695312 Z M 230.234375 58.726562 " fill-opacity="1" fill-rule="nonzero"/><path fill="#ffffff" d="M 27.996094 184.890625 C 28.417969 190.667969 30.144531 194.347656 35.226562 193.296875 C 40.152344 192.277344 41.742188 188.738281 41.742188 184.6875 C 41.742188 180.636719 39.167969 177.367188 30.464844 174.878906 C 17.613281 171.132812 12.773438 166.746094 12.773438 156.238281 C 12.773438 145.734375 20.511719 134.414062 35.15625 131.382812 C 52.394531 127.808594 57.320312 137.195312 57.472656 148.125 L 41.117188 151.511719 C 40.828125 146.597656 39.898438 142.515625 35.074219 143.515625 C 31.296875 144.292969 29.601562 147.023438 29.601562 151.003906 C 29.601562 154.984375 31.261719 156.867188 39.304688 159.070312 C 53.019531 162.898438 58.828125 167.320312 58.828125 179.332031 C 58.828125 191.347656 51.683594 202.023438 35.074219 205.460938 C 17.089844 209.1875 11.605469 200.429688 11.230469 188.382812 L 28.011719 184.910156 Z M 27.996094 184.890625 " fill-opacity="1" fill-rule="nonzero"/><path fill="#ffffff" d="M 115.550781 151.273438 C 115.550781 177.4375 108.152344 190.296875 89.765625 194.109375 C 72.628906 197.667969 65.007812 187.722656 65.007812 161.375 C 65.007812 135.027344 73.476562 123.417969 90.457031 119.910156 C 107.898438 116.300781 115.550781 126.433594 115.550781 151.273438 Z M 82.769531 157.714844 C 82.769531 175.335938 84.414062 182.332031 90.253906 181.128906 C 96.417969 179.859375 97.804688 172.742188 97.804688 154.613281 C 97.804688 136.484375 96.332031 131.671875 90.253906 132.941406 C 84.394531 134.160156 82.769531 141.089844 82.769531 157.730469 Z M 82.769531 157.714844 " fill-opacity="1" fill-rule="nonzero"/><path fill="#ffffff" d="M 173.613281 139.261719 C 173.613281 165.421875 166.214844 178.285156 147.824219 182.09375 C 130.6875 185.652344 123.070312 175.707031 123.070312 149.359375 C 123.070312 123.011719 131.535156 111.40625 148.519531 107.898438 C 165.960938 104.289062 173.613281 114.421875 173.613281 139.261719 Z M 140.832031 145.683594 C 140.832031 163.304688 142.472656 170.300781 148.316406 169.101562 C 154.480469 167.828125 155.867188 160.710938 155.867188 142.582031 C 155.867188 124.453125 154.394531 119.640625 148.316406 120.910156 C 142.457031 122.132812 140.832031 129.0625 140.832031 145.699219 Z M 140.832031 145.683594 " fill-opacity="1" fill-rule="nonzero"/><path fill="#ffffff" d="M 215.234375 94.074219 L 215.234375 138.617188 L 201.28125 96.96875 L 182.671875 100.816406 L 182.671875 174.84375 L 197.757812 171.710938 L 197.757812 124.4375 L 211.914062 168.777344 L 230.234375 164.980469 L 230.234375 90.972656 Z M 215.234375 94.074219 " fill-opacity="1" fill-rule="nonzero"/></svg>